#!OML:ASF X:\für Bonn\!DataBase\2005_08_10_Bjorn_Final\c3d\bjorn.ASF
:FULLY-SPECIFIED
:DEGREES
146
root 0.634051 18.6885 2.11157 -173.209 0.312473 179.948
lowerback -0.485745 1.53827 2.77013
upperback 5.9965 2.27701 0.906644
thorax 6.57072 1.40427 -0.44427
lowerneck -23.5912 -1.45292 0.163269
upperneck 13.7752 -1.43938 -3.2624
head 8.08215 -1.04344 -1.32633
rclavicle 3.73715e-014 -3.97569e-015
rhumerus 79.8579 3.56958 -73.8656
rradius 7.90278
rwrist 41.6279
rhand -9.37145 6.79572
rfingers 7.12502
rthumb 16.5889 -22.5153
lclavicle 3.73715e-014 -3.97569e-015
lhumerus 83.8357 -6.6109 80.1782
lradius 6.35376
lwrist -57.8885
lhand -13.8496 -4.3794
lfingers 7.12502
lthumb 12.2741 25.2404
rfemur -24.1627 -15.7536 18.3515
rtibia 45.5174
rfoot -16.9775 23.8984
rtoes -1.62969
lfemur -22.2103 6.9599 -18.6218
ltibia 44.5263
lfoot -21.0712 -3.3646
ltoes -5.10908
147
root 0.636625 18.7724 2.07202 -172.891 0.312497 179.937
lowerback -1.20021 1.61337 2.74827
upperback 5.84529 2.32284 0.862755
thorax 6.82533 1.41206 -0.453595
lowerneck -23.5818 -1.53825 0.00110701
upperneck 14.3604 -1.52388 -3.04531
head 8.28059 -1.06922 -1.24492
rclavicle -1.59028e-015 -2.06736e-014
rhumerus 79.7045 3.5602 -73.8802
rradius 7.93684
rwrist 41.9402
rhand -9.36915 6.78714
rfingers 7.12502
rthumb 16.5911 -22.5237
lclavicle -1.59028e-015 -2.06736e-014
lhumerus 84.057 -6.59452 80.0344
lradius 5.8568
lwrist -58.1337
lhand -14.0679 -4.48117
lfingers 7.12502
lthumb 12.0636 25.1511
rfemur -23.5443 -15.7635 18.4385
rtibia 43.9317
rfoot -16.5092 23.6141
rtoes -1.55464
lfemur -21.4296 6.80559 -18.6767
ltibia 42.6656
lfoot -20.6357 -3.09516
ltoes -4.65728
148
root 0.639428 18.8473 2.03303 -172.748 0.297267 179.91
lowerback -1.69632 1.67916 2.74372
upperback 5.70295 2.37194 0.788289
thorax 6.96572 1.42567 -0.511361
lowerneck -23.4951 -1.60273 -0.0514231
upperneck 14.9508 -1.60682 -2.90473
head 8.46774 -1.09681 -1.20609
rclavicle 4.57205e-015 -8.74653e-015
rhumerus 79.4649 3.52384 -73.9354
rradius 8.00602
rwrist 42.2613
rhand -9.32322 6.79401
rfingers 7.12502
rthumb 16.6353 -22.5131
lclavicle 4.57205e-015 -8.74653e-015
lhumerus 84.1356 -6.61978 79.8578
lradius 5.49868
lwrist -57.9935
lhand -14.245 -4.61299
lfingers 7.12502
lthumb 11.8929 25.0292
rfemur -22.769 -15.8048 18.4408
rtibia 42.4445
rfoot -16.011 23.4202
rtoes -1.34274
lfemur -20.4844 6.63291 -18.7159
ltibia 40.8847
lfoot -20.2546 -2.82937
ltoes -4.27162
149
root 0.641412 18.9157 1.99464 -172.775 0.289737 179.891
lowerback -1.99113 1.72653 2.74276
upperback 5.61261 2.41283 0.731339
thorax 7.04426 1.4398 -0.558892
lowerneck -23.4182 -1.6614 -0.115849
upperneck 15.4994 -1.67607 -2.80711
head 8.64322 -1.12474 -1.178
rclavicle 1.45113e-014 8.34896e-015
rhumerus 79.2882 3.47636 -73.9595
rradius 7.97791
rwrist 42.4298
rhand -9.27895 6.85732
rfingers 7.12502
rthumb 16.6779 -22.4462
lclavicle 1.45113e-014 8.34896e-015
lhumerus 84.0982 -6.6597 79.7063
lradius 5.36943
lwrist -57.6042
lhand -14.2559 -4.72619
lfingers 7.12502
lthumb 11.8823 24.9166
rfemur -21.836 -15.7753 18.3878
rtibia 41.0476
rfoot -15.6212 23.1781
rtoes -1.10328
lfemur -19.3957 6.47985 -18.7283
ltibia 39.1834
lfoot -19.8771 -2.5647
ltoes -4.0338
150
root 0.642965 18.9783 1.95712 -172.887 0.248782 179.889
lowerback -2.18896 1.75868 2.78344
upperback 5.56377 2.44088 0.672169
thorax 7.11263 1.45331 -0.635049
lowerneck -23.3564 -1.69815 -0.0679884
upperneck 15.9492 -1.73028 -2.84545
head 8.78598 -1.15477 -1.21178
rclavicle 1.05356e-014 1.55052e-014
rhumerus 79.191 3.41393 -73.9902
rradius 7.89371
rwrist 42.7291
rhand -9.27973 6.89006
rfingers 7.12502
rthumb 16.6772 -22.4135
lclavicle 1.05356e-014 1.55052e-014
lhumerus 83.9759 -6.73525 79.5499
lradius 5.46505
lwrist -56.9129
lhand -14.0679 -4.92589
lfingers 7.12502
lthumb 12.0636 24.7064
rfemur -20.8518 -15.6611 18.3251
rtibia 39.754
rfoot -15.3421 22.8662
rtoes -1.12851
lfemur -18.2566 6.31212 -18.7018
ltibia 37.5817
lfoot -19.5593 -2.37182
ltoes -3.70805
151
root 0.643681 19.0329 1.92 -172.99 0.188539 179.943
lowerback -2.41234 1.78466 2.89039
upperback 5.55219 2.45839 0.630249
thorax 7.23795 1.46731 -0.728642
lowerneck -23.2916 -1.74141 -0.0340151
upperneck 16.2617 -1.79225 -2.88171
head 8.88121 -1.18842 -1.24208
rclavicle -8.54774e-015 -1.59028e-015
rhumerus 79.2068 3.32803 -74.0029
rradius 7.82424
rwrist 42.9988
rhand -9.33796 6.90034
rfingers 7.12502
rthumb 16.6211 -22.408
lclavicle -8.54774e-015 -1.59028e-015
lhumerus 83.8564 -6.79723 79.3942
lradius 5.6846
lwrist -56.0056
lhand -13.6826 -5.13035
lfingers 7.12502
lthumb 12.4351 24.4797
rfemur -19.935 -15.5473 18.3194
rtibia 38.5758
rfoot -15.1061 22.5792
rtoes -1.14465
lfemur -17.2028 6.18798 -18.6158
ltibia 36.1018
lfoot -19.2336 -2.23086
ltoes -3.40449
152
root 0.643661 19.0803 1.88217 -173.036 0.16877 180.003
lowerback -2.69092 1.82253 2.99921
upperback 5.53141 2.4872 0.592322
thorax 7.38624 1.48617 -0.816187
lowerneck -23.1746 -1.7718 0.0374081
upperneck 16.448 -1.83579 -2.99742
head 8.92316 -1.21966 -1.30092
rclavicle 7.95139e-016 1.74931e-014
rhumerus 79.2381 3.25444 -74.0087
rradius 7.80535
rwrist 43.279
rhand -9.37767 6.86721
rfingers 7.12502
rthumb 16.5829 -22.4443
lclavicle 7.95139e-016 1.74931e-014
lhumerus 83.7316 -6.84372 79.2434
lradius 5.94936
lwrist -54.9485
lhand -13.0998 -5.27765
lfingers 7.12502
lthumb 12.997 24.2975
rfemur -19.1747 -15.5106 18.3266
rtibia 37.533
rfoot -14.8589 22.4319
rtoes -1.11548
lfemur -16.2739 6.04301 -18.5341
ltibia 34.7568
lfoot -18.9505 -2.0415
ltoes -3.1317
